PathFileType	4	(X/Y/Z)	./resultDataOpenSim/trcMotMarkerGrf/sub10/qtm-04-08.trc
DataRate	CameraRate	NumFrames	NumMarkers	Units	OrigDataRate	OrigDataStartFrame	OrigNumFrames
250.000000	250.000000	7	24	m	250.000000	271	541
Frame#	Time	L.Toe.Tip			R.Toe.Tip			L.Ankle.Lat			R.Ankle.Lat			L.Ankle.Med			R.Ankle.Med			L.Heel			R.Heel			L.Knee.Lat			R.Knee.Lat			L.Knee.Med			R.Knee.Med			L.Thigh.Upper			R.Thigh.Upper			L.ASIS			R.ASIS			V.Sacral			L.Acromium			R.Acromium			C7			L.Elbow			R.Elbow			L.Wrist.Lat			R.Wrist.Lat
		X1	Y1	Z1	X2	Y2	Z2	X3	Y3	Z3	X4	Y4	Z4	X5	Y5	Z5	X6	Y6	Z6	X7	Y7	Z7	X8	Y8	Z8	X9	Y9	Z9	X10	Y10	Z10	X11	Y11	Z11	X12	Y12	Z12	X13	Y13	Z13	X14	Y14	Z14	X15	Y15	Z15	X16	Y16	Z16	X17	Y17	Z17	X18	Y18	Z18	X19	Y19	Z19	X20	Y20	Z20	X21	Y21	Z21	X22	Y22	Z22	X23	Y23	Z23	X24	Y24	Z24

271	1.08	-0.032948279	-0.032353869	-0.022721612	0.091140469	0.080274286	0.1336656	-0.16525673	0.0069602755	-0.059854232	-0.031436055	0.15442997	0.11719232	-0.1611098	0.033769392	0.019666359	0.027703868	0.15878817	0.048549027	-0.23317684	-0.01207759	-0.018455721	-0.067782287	0.14229843	0.054920307	-0.079628125	0.38541427	-0.10709425	0.17656997	0.4751392	0.17177785	-0.080691548	0.36701186	0.015323806	0.22647902	0.4830752	0.049116113	-0.033071229	0.77850866	-0.17615965	-0.030238764	0.81301889	0.20295621	0.029851399	0.88727014	-0.11590032	0.035171554	0.90249129	0.12562989	-0.16321629	0.91276712	0.0097961521	-0.007619185	1.3663708	-0.15120144	-0.037802861	1.3701169	0.17143703	-0.10614132	1.3954392	-0.0061476618	-0.051156486	1.0227343	-0.2277005	-0.14392592	1.038301	0.19671344	0.14780135	0.87320928	-0.22003274	-0.067098172	0.82186677	0.280265
272	1.084	-0.032935057	-0.032385423	-0.022696818	0.110051	0.07951426	0.13515799	-0.16533808	0.0072925028	-0.059535906	-0.014881746	0.14990772	0.11833087	-0.16026756	0.034166295	0.01969341	0.044273037	0.15558826	0.049618922	-0.23319164	-0.01160522	-0.018074058	-0.050084083	0.1362107	0.055541476	-0.079982846	0.38549581	-0.10625053	0.18473582	0.47720379	0.1716167	-0.07999021	0.36703228	0.015640806	0.23385161	0.4857266	0.049002489	-0.030693815	0.77848834	-0.1759	-0.023536123	0.81410011	0.20357746	0.033208252	0.88729287	-0.11636199	0.040189778	0.90281912	0.12535785	-0.15925151	0.91276835	0.011346367	-0.0032475201	1.3664848	-0.15110959	-0.032437942	1.3700174	0.17164454	-0.10116454	1.3955854	-0.0056793166	-0.044072481	1.0223777	-0.2277877	-0.14098644	1.039037	0.1969997	0.15652927	0.87546889	-0.2179834	-0.065734241	0.82226703	0.28096099
273	1.088	-0.033004535	-0.032442037	-0.022590092	0.12900566	0.078839245	0.13663027	-0.16524142	0.0075832858	-0.059403336	0.0019737606	0.14539909	0.11915263	-0.1595758	0.034466424	0.019756388	0.060934677	0.15245586	0.050679493	-0.23314534	-0.011249822	-0.01769358	-0.032469884	0.13027664	0.056295298	-0.080110111	0.38554281	-0.10553182	0.19273995	0.47913559	0.1714563	-0.079169507	0.36701198	0.015910822	0.24106447	0.48821303	0.048888943	-0.028304273	0.77841726	-0.17558426	-0.017067118	0.81504603	0.20410183	0.036397769	0.88720318	-0.11688925	0.045215694	0.90306402	0.12511199	-0.15531962	0.91270694	0.012894436	0.0011621332	1.3665207	-0.1509931	-0.027035715	1.3698526	0.1718482	-0.096173597	1.3956513	-0.0052102498	-0.036849541	1.0219512	-0.2279838	-0.13802699	1.0397025	0.19720829	0.16518451	0.8776776	-0.2159281	-0.064308347	0.82263693	0.28165697
274	1.092	-0.033097713	-0.032485129	-0.022484774	0.14797339	0.078257761	0.13807726	-0.16519871	0.0078200711	-0.059182954	0.018943889	0.14088143	0.11980314	-0.15920243	0.034693743	0.019945202	0.077669552	0.14939677	0.051729908	-0.23308924	-0.010973291	-0.017276074	-0.014916466	0.12451423	0.057150047	-0.079874197	0.38560066	-0.10506148	0.20058947	0.48091068	0.17129975	-0.078324309	0.36699232	0.016184885	0.24811388	0.49052389	0.048770844	-0.025904297	0.77828118	-0.17530631	-0.010881525	0.81583944	0.20450455	0.039563183	0.88704075	-0.11738879	0.050241724	0.90323607	0.12488872	-0.15141499	0.91258342	0.014430097	0.0055785871	1.3664723	-0.15086532	-0.021612217	1.3696196	0.17205206	-0.091172325	1.3956366	-0.0047439951	-0.030169009	1.0215627	-0.22770701	-0.13503837	1.0402961	0.19735482	0.17375835	0.87983081	-0.21388278	-0.062823487	0.82296442	0.28235474
275	1.096	-0.033170956	-0.0325015	-0.022426352	0.16690421	0.077801667	0.13949503	-0.16534693	0.0080051622	-0.058701201	0.035910989	0.13639157	0.12050557	-0.15900751	0.034911694	0.020315203	0.094452239	0.14639719	0.052749287	-0.23305847	-0.010741966	-0.016814437	0.002685413	0.11892467	0.057988156	-0.079415537	0.38566	-0.1047407	0.20830824	0.48251042	0.17114421	-0.077487428	0.36698689	0.016506072	0.25499352	0.49265019	0.048647102	-0.023455308	0.77808112	-0.17504892	-0.0048544534	0.81652349	0.20484037	0.042808901	0.8868318	-0.11779978	0.055265853	0.90334311	0.12468645	-0.14753239	0.91239855	0.015942885	0.0099787772	1.3663388	-0.15074229	-0.016181225	1.3693115	0.17225488	-0.086124778	1.3955196	-0.0042889966	-0.025462533	1.0214406	-0.2257439	-0.13201259	1.0408215	0.19747015	0.18225339	0.88193042	-0.21184454	-0.061290484	0.82324051	0.28305419
276	1.1	-0.033228284	-0.032502445	-0.02240015	0.1857581	0.07749818	0.14086457	-0.1655778	0.008154432	-0.05809037	0.052948903	0.13201397	0.12138063	-0.15884414	0.035135015	0.020838265	0.11126995	0.14347195	0.053738572	-0.23306394	-0.01054266	-0.01632442	0.020380117	0.11349592	0.058815529	-0.078904267	0.38569666	-0.10444134	0.21591914	0.48392053	0.17098404	-0.076661983	0.36698338	0.016873029	0.26170719	0.49458437	0.048520099	-0.02093139	0.77783271	-0.17475449	0.0011477448	0.81714054	0.20517389	0.046147674	0.88657567	-0.11812625	0.060289369	0.9033868	0.12451063	-0.14367003	0.91215372	0.017420766	0.014363061	1.3661288	-0.15063183	-0.01074582	1.3689199	0.17245519	-0.0810263	1.395287	-0.0038441591	-0.023852577	1.0217661	-0.22117272	-0.12895188	1.0412825	0.19757102	0.19067967	0.88398049	-0.20980552	-0.05971711	0.82346588	0.28375643
277	1.104	-0.033293659	-0.032501006	-0.022372309	0.204506	0.077355224	0.14215901	-0.16573315	0.0082938435	-0.057585456	0.070167357	0.12779986	0.12243247	-0.15869293	0.035312668	0.021399119	0.12811365	0.14065811	0.054721796	-0.2331032	-0.010377361	-0.015817558	0.038133517	0.10820912	0.059755204	-0.078414417	0.3856893	-0.104104	0.22342295	0.48513485	0.17082479	-0.075872463	0.36694597	0.017295289	0.26827012	0.49631957	0.048395543	-0.018348516	0.77754387	-0.17442767	0.0071993741	0.8177025	0.20554323	0.049551012	0.88626233	-0.11839574	0.065315493	0.90336114	0.12436488	-0.13983366	0.91185111	0.018848122	0.018743224	1.3658501	-0.15053271	-0.0053030778	1.3684414	0.17265379	-0.075932175	1.3949537	-0.0034002453	-0.024283409	1.0223749	-0.21497793	-0.12586454	1.0416798	0.19766322	0.19905112	0.88598205	-0.20775686	-0.058102795	0.82364381	0.28445899
